<svg xmlns="http://www.w3.org/2000/svg" width="41" height="41" fill="none" viewBox="0 0 41 41">
  <path fill="#fff" fill-rule="evenodd" d="M25.285 2.471c-.699.122-1.62.732-1.892 1.252-.192.367-.26.832-.176 1.205.062.274.045.361-.104.563-.264.357-.294.946-.073 1.416.261.556.345.6.645.348l.252-.211-.16-.263c-.15-.244-.217-.712-.117-.812.024-.024.154.06.29.186.364.34.899.52 1.382.462.79-.094 1.78-.755 2.083-1.392.16-.338.18-1.098.038-1.429-.438-1.015-1.215-1.49-2.168-1.325Zm.08.847c-.781.24-1.421.837-1.421 1.326 0 .648.481 1.179 1.066 1.176.328-.002.896-.24 1.29-.54.513-.392.656-.987.354-1.483-.294-.482-.74-.648-1.29-.479Zm-11.63.14c-.629.345-1.107 1.135-1.107 1.825 0 .387.036.492.254.74.153.175.381.323.579.376.507.137.843-.016 1.474-.67.4-.414.6-.563.758-.563.257 0 .543.262.543.496 0 .4-.445.927-.918 1.09-.153.052-.292.113-.308.136-.017.023.015.18.071.349.118.357.267.388.728.15.663-.34 1.165-1.15 1.165-1.878 0-.43-.02-.471-.366-.804-.673-.645-1.226-.572-2.034.269-.65.676-.752.733-1.008.565-.4-.261-.116-1.117.454-1.369.285-.126.289-.141.13-.524-.13-.308-.167-.325-.415-.189Zm13.576 3.307c-1.32.727-1.584.919-1.776 1.287-.398.765.275 2.235 1.156 2.526.454.15.894 0 2.35-.802l1.286-.707-.157-.306c-.085-.168-.186-.324-.222-.347-.036-.022-.631.274-1.322.659-1.324.738-1.624.825-1.999.58-.114-.075-.273-.309-.353-.52-.142-.371-.142-.391.012-.673.13-.236.388-.416 1.389-.97a51.183 51.183 0 0 1 1.302-.708c.08-.03-.246-.716-.34-.716-.034 0-.63.314-1.326.697ZM11 7.847l-.245.484 1.393 1.554c.767.855 1.442 1.604 1.501 1.665.09.092.142.051.315-.24l.209-.348-.322-.382c-.177-.21-.322-.41-.322-.446 0-.035.167-.37.37-.743l.37-.678.51.106c.282.059.515.1.52.092.216-.368.383-.717.356-.742-.02-.019-.92-.188-2.003-.376a272.994 272.994 0 0 1-2.188-.387c-.2-.04-.241-.001-.464.44Zm1.3 1.07c.326.35.616.645.644.655.029.011.174-.202.322-.472.195-.355.241-.502.164-.527-.21-.07-1.398-.291-1.558-.291-.126 0-.029.144.429.636Zm-3.163 2.279c-.438.79-.781 1.449-.764 1.462.188.147.453.298.52.298.047 0 .193-.207.325-.46.132-.252.281-.474.333-.494.05-.02.725.316 1.497.747.772.43 1.46.803 1.527.83.177.067.526-.614.367-.716-.06-.039-.746-.424-1.524-.855-.779-.432-1.415-.824-1.415-.872 0-.048.117-.29.259-.54.251-.439.254-.456.103-.57-.427-.318-.381-.362-1.228 1.17Zm19.874.36c-1.114.029-2.046.072-2.07.098-.026.025.036.199.138.386l.185.34.574.002.574.001.321.59c.261.479.3.602.205.659l-.422.252-.307.182.581 1.064c.86 1.575.76 1.456 1.099 1.294.157-.075.286-.162.286-.193s-.22-.45-.487-.929l-.487-.872.344-.175c.189-.096.422-.227.52-.29.169-.11.192-.085.606.664.454.822.448.818.85.518.151-.113.148-.132-.115-.6-.149-.266-.34-.6-.425-.743l-.154-.26.453-.245.453-.245.463.832c.255.458.476.848.492.867.035.042.604-.26.599-.32-.002-.023-.364-.688-.803-1.477l-.8-1.435-.324-.008a111.76 111.76 0 0 0-2.349.043Zm.293.795c-.09.037.28.849.388.85.072.001 1.549-.826 1.549-.867 0-.046-1.822-.03-1.937.017ZM7.831 13.796c-.25.235-1.189 1.771-1.189 1.945 0 .07 3.537 2.053 3.659 2.052.04 0 .151-.146.248-.325.205-.377.24-.332-.668-.822-.36-.195-.668-.364-.683-.375-.046-.035.16-.393.339-.589.2-.22.47-.233 1.289-.06.322.067.62.102.662.076.042-.026.15-.19.238-.364l.162-.317-.47-.091c-.26-.05-.563-.11-.676-.13-.335-.064-.766-.065-.964-.002-.17.054-.184.034-.184-.263 0-.565-.5-1.001-1.145-1.001-.263 0-.393.056-.618.267Zm.273.697c-.157.186-.478.748-.478.838 0 .062.84.577.94.577.077 0 .534-.861.535-1.008.002-.417-.734-.717-.997-.407Zm-2.602 3.275c-.366.663-.638 1.233-.603 1.267.1.1 3.64 2.056 3.665 2.026.152-.187 1.35-2.476 1.32-2.524-.05-.081-.53-.285-.57-.242-.016.018-.24.41-.496.87l-.467.84-.424-.214c-.667-.334-.657-.286-.213-1.078.22-.393.402-.74.403-.773 0-.033-.116-.12-.26-.195-.308-.16-.297-.17-.811.767l-.327.595-.401-.204c-.222-.112-.42-.232-.44-.267-.02-.035.161-.413.403-.842.242-.428.441-.817.442-.864 0-.074-.41-.366-.515-.366-.022 0-.34.542-.706 1.204Zm27.771-.953c-.168.089-.362.27-.43.402-.158.305-.159.912-.001 1.43.224.74.092 1.115-.391 1.115-.455 0-.757-.56-.69-1.277l.047-.508-.252-.05c-.424-.085-.469-.063-.562.285-.162.6.081 1.356.63 1.964.535.591 1.257.59 1.85-.003.272-.271.31-.358.31-.699 0-.214-.08-.68-.177-1.035-.17-.623-.172-.65-.028-.809.437-.483 1.178.284 1.09 1.127-.022.211-.002.228.322.251.312.023.35.005.398-.185.16-.633-.455-1.802-1.086-2.065-.364-.152-.666-.135-1.03.057Zm1.08 3.893c-1.098.609-1.83 1.061-1.814 1.123.026.103.87 1.659 1.18 2.174.166.277.217.277.581.005.138-.103.119-.162-.307-.94-.25-.456-.455-.86-.454-.9 0-.039.22-.192.489-.34l.488-.267.327.596c.515.938.504.927.812.768.144-.075.26-.162.26-.195-.001-.032-.182-.38-.403-.773l-.4-.714.422-.243c.499-.286.443-.325 1.013.728.208.383.387.709.398.724.02.023.522-.21.6-.279.025-.022-.849-1.647-1.218-2.265l-.133-.22-1.84 1.018Zm-30.329-.064c-.212.197-1.098 1.689-1.169 1.967-.015.06.735.524 1.816 1.122l1.841 1.018.146-.24c.49-.805 1.05-1.995 1.05-2.23 0-.869-1.054-1.489-1.78-1.046l-.261.16-.05-.181c-.158-.562-.458-.796-1.02-.796a.731.731 0 0 0-.573.226Zm.221.738c-.118.134-.473.788-.473.872 0 .02.204.148.453.283l.453.246.243-.424c.134-.233.244-.523.244-.645.002-.41-.646-.644-.92-.332Zm1.727.515c-.116.067-.724 1.051-.724 1.171 0 .037 1.035.63 1.099.63.014 0 .165-.272.334-.605.35-.689.338-.875-.067-1.122-.287-.176-.438-.193-.642-.074Zm30.149 2.05c-.947.536-1.754.986-1.794 1.001-.104.04.26.718.385.718a.32.32 0 0 0 .183-.07c.043-.039.36-.224.706-.411l.627-.342.178.368c.112.232.158.434.123.544-.03.096-.293.433-.584.75-.29.316-.516.599-.502.627l.184.36c.086.17.185.3.22.287.174-.06 1.213-1.335 1.26-1.544.052-.242.152-.309.242-.162.027.043.177.114.333.157.4.111.795-.02 1.097-.364.412-.469.364-.845-.25-1.978-.278-.51-.545-.925-.595-.92-.05.004-.866.445-1.813.98Zm-34.103.095c-.245.411-.41.266 1.467 1.293.767.42 1.55.853 1.74.963l.347.201.181-.374c.1-.205.166-.386.146-.402a313.463 313.463 0 0 0-3.496-1.932c-.162-.085-.199-.06-.385.25Zm35.251.228c-.225.133-.41.27-.409.306.003.133.356.726.52.874.3.272.914-.011.914-.421 0-.243-.4-1.004-.525-1.002-.05.001-.274.11-.5.243ZM.349 27.056a2.444 2.444 0 0 0-.185.363c0 .059 3.559 2.019 3.665 2.019.08 0 1.337-2.183 1.337-2.322 0-.086-.491-.312-.572-.262-.041.025-.265.397-.496.825l-.422.78-.423-.24A157.4 157.4 0 0 0 .55 26.733c-.01 0-.101.146-.202.323Zm37.743.63c-1.126.202-2.062.38-2.08.398-.016.017.055.184.16.371.191.34.192.34.562.28.675-.108.648-.124 1.07.62l.395.695-.36.385-.36.385.214.382c.206.37.218.377.36.232.379-.39 2.865-3.188 2.864-3.225 0-.023-.112-.236-.248-.473-.155-.27-.299-.427-.388-.422-.078.004-1.063.172-2.19.373Zm.841.623-.795.165.243.482c.134.265.274.482.31.482.1 0 1.161-1.117 1.161-1.222 0-.05-.028-.086-.061-.081-.034.005-.42.083-.858.174ZM9.676 34.768v.328h1.23v3.608h.902v-3.608h1.23v-.656H9.676v.328Zm4.961-.23a507.03 507.03 0 0 0-1.435 4.15c0 .014.19.014.424 0l.424-.025.157-.471.157-.472h1.682l.149.492.149.492h.438c.24 0 .438-.01.438-.02 0-.012-.327-.962-.726-2.112l-.725-2.091-.547-.024c-.39-.018-.557.006-.585.082Zm3.239 2.034v2.132h.738v-1.451c0-.86.03-1.42.074-1.374.04.043.287.696.547 1.452l.474 1.373h.691l.419-1.195c.23-.657.441-1.284.469-1.394.134-.536.196-.175.196 1.15v1.439h.82V34.44h-1.107l-.533 1.558c-.293.857-.555 1.558-.581 1.558-.027 0-.285-.7-.574-1.558l-.526-1.557h-.553l-.554-.001v2.132Zm5.576 0v2.132h2.88l-.026-.349-.025-.348-1.005-.023-1.004-.023v-1.143h1.722v-.656h-1.722v-1.066h1.968v-.656h-2.788v2.132Zm3.69 0v2.132h.738v-1.43c0-.787.031-1.45.069-1.473.038-.023.471.611.963 1.41l.895 1.452.43.025.431.025V34.44h-.816l-.023 1.373-.022 1.374-.861-1.373-.861-1.374h-.943v2.132Zm-12.27-.408-.257.818h.564c.311 0 .565-.028.564-.062-.003-.16-.485-1.535-.545-1.553-.038-.012-.185.347-.326.797Z" clip-rule="evenodd"/>
  <path fill="#FF3933" fill-rule="evenodd" d="M11.918 18.168 3.46 33.21h16.926c9.309 0 16.925-.022 16.925-.049 0-.074-16.737-29.826-16.842-29.938-.068-.073-2.207 3.666-8.55 14.945ZM27.571 4.51c0 .158.017.222.037.144a.671.671 0 0 0 0-.287c-.02-.08-.037-.015-.037.143Zm2.79 7.029c.123.018.326.018.45 0 .125-.02.023-.034-.225-.034s-.35.015-.226.034Zm-3.322.08c.102.02.268.02.37 0 .101-.019.018-.035-.185-.035-.203 0-.286.016-.184.036Zm2.544.74c.147.019.369.018.492 0 .123-.02.003-.034-.268-.034-.27 0-.371.016-.224.035Zm-6.177 24.213c0 1.195.011 1.684.025 1.086.014-.597.014-1.575 0-2.172-.014-.598-.025-.11-.025 1.086Zm3.69 0c0 1.195.011 1.684.025 1.086.014-.597.014-1.575 0-2.172-.014-.598-.025-.11-.025 1.086Zm.818.697c0 .812.012 1.133.027.713.015-.42.015-1.083 0-1.476-.015-.392-.027-.049-.027.763Zm-3.209-1.128c.262.016.667.016.903 0 .235-.017.021-.03-.475-.03s-.688.013-.427.03Z" clip-rule="evenodd"/>
</svg>
