<svg width="33" height="32" viewBox="0 0 33 32" fill="none" xmlns="http://www.w3.org/2000/svg">
<path d="M16.995 0C13.8305 0 10.7371 0.938383 8.10588 2.69649C5.47469 4.45459 3.42394 6.95344 2.21293 9.87706C1.00193 12.8007 0.685078 16.0177 1.30244 19.1214C1.9198 22.2251 3.44366 25.0761 5.6813 27.3137C7.91894 29.5513 10.7699 31.0752 13.8736 31.6926C16.9773 32.3099 20.1943 31.9931 23.1179 30.7821C26.0416 29.5711 28.5404 27.5203 30.2985 24.8891C32.0566 22.2579 32.995 19.1645 32.995 16C32.995 13.8988 32.5811 11.8183 31.7771 9.87706C30.973 7.93585 29.7944 6.17203 28.3087 4.68629C26.823 3.20055 25.0591 2.022 23.1179 1.21793C21.1767 0.413852 19.0962 0 16.995 0ZM13.795 23.2V8.8L23.395 16L13.795 23.2Z" fill="white"/>
</svg>
