<svg xmlns="http://www.w3.org/2000/svg" width="67" height="15" fill="none" viewBox="0 0 67 15">
  <path fill="#fff" d="M5.4 8.004v3.672c0 .716.043 1.168.127 1.357a.998.998 0 0 0 .47.44c.227.11.64.166 1.24.166V14H.506v-.361c.613 0 1.026-.056 1.241-.166.221-.118.374-.267.459-.45.091-.182.137-.631.137-1.347V3.082c0-.716-.046-1.165-.137-1.348a.934.934 0 0 0-.459-.449c-.221-.11-.635-.166-1.24-.166V.758h5.771c1.901 0 3.265.338 4.092 1.015.827.678 1.24 1.524 1.24 2.54 0 .859-.267 1.595-.8 2.207-.534.612-1.27 1.028-2.207 1.25-.632.156-1.7.234-3.204.234Zm0-6.484v5.722c.215.013.378.02.489.02.794 0 1.406-.235 1.836-.703.43-.476.644-1.208.644-2.198 0-.983-.215-1.702-.644-2.158-.43-.456-1.071-.683-1.924-.683h-.4Zm11.807 3.076c.794 0 1.533.205 2.217.615.683.41 1.201.993 1.553 1.748.358.755.537 1.582.537 2.48 0 1.296-.33 2.38-.987 3.252-.794 1.055-1.89 1.582-3.29 1.582-1.374 0-2.432-.481-3.174-1.445-.743-.963-1.114-2.08-1.114-3.35 0-1.308.378-2.447 1.133-3.417.762-.977 1.803-1.465 3.125-1.465Zm.04.693c-.333 0-.62.127-.86.38-.235.248-.39.743-.469 1.485-.072.736-.107 1.761-.107 3.076 0 .697.045 1.348.136 1.954.072.462.225.813.46 1.054.234.241.5.362.8.362.293 0 .537-.082.732-.245.254-.22.424-.53.508-.927.13-.619.196-1.869.196-3.75 0-1.107-.062-1.866-.186-2.276-.124-.416-.306-.72-.547-.908-.17-.137-.39-.205-.664-.205ZM31.776.758v10.508c0 .71.02 1.13.059 1.26.052.214.15.374.293.478.15.104.407.17.771.195v.322l-3.857.752v-1.445c-.462.56-.876.94-1.24 1.143a2.442 2.442 0 0 1-1.221.302c-1.165 0-2.087-.52-2.764-1.562-.547-.846-.82-1.885-.82-3.115 0-.983.17-1.862.508-2.637.338-.781.8-1.37 1.387-1.768a3.357 3.357 0 0 1 1.904-.595c.436 0 .823.084 1.162.254.338.169.7.465 1.084.888V2.984c0-.696-.03-1.116-.088-1.26a.837.837 0 0 0-.351-.42c-.157-.09-.45-.136-.88-.136v-.41h4.053Zm-2.734 6.191c-.482-.924-1.071-1.386-1.768-1.386-.24 0-.44.065-.595.195-.241.202-.44.556-.596 1.064-.15.508-.225 1.286-.225 2.334 0 1.153.085 2.005.254 2.559.17.553.4.954.694 1.201.15.124.355.186.615.186.573 0 1.113-.45 1.621-1.348V6.949Zm12.441 4.697.303.235c-.43.807-.967 1.41-1.611 1.806a3.843 3.843 0 0 1-2.041.586c-1.218 0-2.191-.458-2.92-1.377-.73-.918-1.094-2.021-1.094-3.31 0-1.244.332-2.337.996-3.281.801-1.14 1.905-1.71 3.31-1.71.945 0 1.693.238 2.247.714.56.475.84 1.005.84 1.591 0 .371-.114.668-.342.89-.221.22-.514.331-.879.331a1.3 1.3 0 0 1-.957-.38c-.247-.255-.4-.707-.459-1.358-.04-.41-.134-.697-.283-.86a.695.695 0 0 0-.528-.244c-.312 0-.579.166-.8.498-.339.502-.508 1.27-.508 2.305 0 .86.136 1.683.41 2.47.273.782.648 1.365 1.123 1.749a2 2 0 0 0 1.27.42c.319 0 .621-.075.908-.225.286-.15.625-.433 1.015-.85Zm6.475 1.006c-1.113.983-2.113 1.475-2.998 1.475-.52 0-.954-.17-1.299-.508-.345-.345-.517-.775-.517-1.289 0-.697.299-1.322.898-1.875.599-.56 1.904-1.302 3.916-2.226V7.31c0-.69-.04-1.123-.117-1.3-.072-.182-.212-.338-.42-.468a1.253 1.253 0 0 0-.703-.205c-.423 0-.772.094-1.045.283-.17.117-.254.254-.254.41 0 .137.091.306.273.508.248.28.372.55.372.81 0 .32-.121.593-.362.82-.234.222-.544.333-.928.333-.41 0-.755-.124-1.035-.371-.273-.248-.41-.537-.41-.87 0-.468.186-.914.557-1.337.37-.43.888-.759 1.553-.987a6.334 6.334 0 0 1 2.07-.341c.866 0 1.55.185 2.05.556.508.365.837.762.987 1.192.091.273.137.901.137 1.885v3.544c0 .417.016.68.048.792a.47.47 0 0 0 .147.234.35.35 0 0 0 .224.078c.17 0 .342-.12.518-.361l.293.234c-.325.482-.664.833-1.016 1.055a2.19 2.19 0 0 1-1.181.322c-.521 0-.928-.12-1.22-.361-.294-.248-.473-.619-.538-1.114Zm0-.712V8.883c-.788.462-1.374.957-1.758 1.484-.254.352-.38.707-.38 1.065 0 .3.107.563.322.79.162.176.39.264.683.264.326 0 .703-.182 1.133-.546ZM58.69 4.615l.147 3.115h-.332c-.397-.924-.81-1.556-1.24-1.894-.424-.339-.847-.508-1.27-.508a.949.949 0 0 0-.684.274.816.816 0 0 0-.283.615.8.8 0 0 0 .196.508c.208.267.79.726 1.748 1.377.957.644 1.585 1.194 1.884 1.65.306.45.46.954.46 1.514 0 .507-.127 1.005-.382 1.494a2.67 2.67 0 0 1-1.074 1.123 3.07 3.07 0 0 1-1.533.39c-.436 0-1.019-.136-1.748-.41-.195-.071-.329-.107-.4-.107-.215 0-.394.163-.537.488h-.323l-.156-3.281h.332c.293.86.694 1.504 1.201 1.934.515.43 1 .644 1.455.644.313 0 .567-.094.762-.283a.944.944 0 0 0 .303-.703c0-.313-.098-.583-.293-.81-.196-.229-.632-.574-1.309-1.036-.996-.69-1.64-1.217-1.933-1.582-.43-.534-.645-1.123-.645-1.768 0-.703.241-1.338.723-1.904.488-.573 1.191-.86 2.11-.86.494 0 .972.121 1.435.362.175.098.319.147.43.147a.521.521 0 0 0 .283-.069c.071-.052.185-.192.341-.42h.332Zm5.645-3.086v3.34h2.168v.967h-2.168v5.635c0 .527.023.869.068 1.025a.79.79 0 0 0 .264.371.592.592 0 0 0 .342.137c.423 0 .823-.322 1.2-.967l.294.215c-.527 1.25-1.384 1.875-2.569 1.875-.579 0-1.07-.16-1.474-.479-.397-.325-.651-.686-.762-1.083-.065-.222-.097-.82-.097-1.797V5.836H60.41v-.342a12.47 12.47 0 0 0 2.09-1.826c.58-.638 1.084-1.35 1.514-2.139h.322Z"/>
</svg>
