<svg xmlns="http://www.w3.org/2000/svg" width="92" height="20" fill="none" viewBox="0 0 92 20">
  <path fill="#000" d="M12.617.758v3.584h-.351c-.209-.827-.44-1.42-.694-1.778a2.653 2.653 0 0 0-1.045-.869c-.247-.117-.68-.175-1.298-.175h-.987v10.214c0 .678.036 1.1.108 1.27.078.17.224.319.44.45.22.123.52.185.898.185h.439V14H3.193v-.361h.44c.384 0 .693-.069.928-.205.169-.092.302-.248.4-.47.072-.155.107-.566.107-1.23V1.52h-.957c-.892 0-1.54.188-1.943.566-.566.527-.925 1.28-1.074 2.256H.723V.758h11.894ZM15.84.445c.423 0 .781.15 1.074.45.293.292.44.647.44 1.064 0 .417-.15.771-.45 1.064a1.45 1.45 0 0 1-1.064.44 1.45 1.45 0 0 1-1.065-.44 1.45 1.45 0 0 1-.44-1.064c0-.417.147-.772.44-1.064.293-.3.648-.45 1.065-.45Zm1.367 4.424v7.236c0 .645.075 1.058.225 1.24.15.176.442.277.879.303V14h-4.932v-.352c.404-.013.703-.13.898-.351.13-.15.196-.547.196-1.192V6.773c0-.644-.075-1.054-.225-1.23-.15-.182-.44-.286-.87-.313v-.36h3.829Zm5.791 0v2.07c.605-.944 1.136-1.569 1.592-1.875.456-.312.895-.468 1.318-.468.365 0 .654.114.87.341.22.222.331.538.331.948 0 .436-.107.775-.322 1.015a.97.97 0 0 1-.762.362c-.345 0-.644-.111-.898-.332a5.485 5.485 0 0 0-.45-.371.428.428 0 0 0-.224-.059.82.82 0 0 0-.537.215c-.267.221-.469.537-.605.947a6.641 6.641 0 0 0-.313 2.09v2.1l.01.546c0 .372.023.61.068.713a.809.809 0 0 0 .342.391c.156.078.417.127.781.146V14h-4.931v-.352c.397-.032.664-.14.8-.322.144-.189.215-.68.215-1.474v-5.05c0-.52-.026-.852-.078-.995a.785.785 0 0 0-.283-.4c-.124-.085-.342-.144-.654-.177v-.36h3.73Zm10.137 7.783c-1.113.983-2.113 1.475-2.998 1.475-.521 0-.954-.17-1.3-.508-.344-.345-.517-.775-.517-1.289 0-.697.3-1.322.899-1.875.599-.56 1.904-1.302 3.916-2.226V7.31c0-.69-.04-1.123-.117-1.3-.072-.182-.212-.338-.42-.468a1.254 1.254 0 0 0-.703-.205c-.424 0-.772.094-1.045.283-.17.117-.254.254-.254.41 0 .137.09.306.273.508.247.28.371.55.371.81 0 .32-.12.593-.361.82-.235.222-.544.333-.928.333-.41 0-.755-.124-1.035-.371-.273-.248-.41-.537-.41-.87 0-.468.185-.914.556-1.337.372-.43.89-.759 1.553-.987a6.335 6.335 0 0 1 2.07-.341c.866 0 1.55.185 2.051.556.508.365.837.762.987 1.192.09.273.136.901.136 1.885v3.544c0 .417.017.68.05.792a.47.47 0 0 0 .146.234.35.35 0 0 0 .224.078c.17 0 .342-.12.518-.361l.293.234c-.326.482-.664.833-1.016 1.055a2.19 2.19 0 0 1-1.181.322c-.521 0-.928-.12-1.221-.361-.293-.248-.472-.619-.537-1.114Zm0-.712V8.883c-.788.462-1.374.957-1.758 1.484-.254.352-.38.707-.38 1.065 0 .3.107.563.321.79.163.176.391.264.684.264.325 0 .703-.182 1.133-.546ZM46.973.758v10.508c0 .71.02 1.13.058 1.26.052.214.15.374.293.478.15.104.407.17.772.195v.322l-3.858.752v-1.445c-.462.56-.875.94-1.24 1.143a2.442 2.442 0 0 1-1.22.302c-1.166 0-2.087-.52-2.764-1.562-.547-.846-.82-1.885-.82-3.115 0-.983.169-1.862.507-2.637.339-.781.801-1.37 1.387-1.768a3.357 3.357 0 0 1 1.904-.595c.436 0 .824.084 1.162.254.339.169.7.465 1.084.888V2.984c0-.696-.029-1.116-.088-1.26a.837.837 0 0 0-.351-.42c-.156-.09-.45-.136-.88-.136v-.41h4.054Zm-2.735 6.191c-.481-.924-1.07-1.386-1.767-1.386a.9.9 0 0 0-.596.195c-.24.202-.44.556-.596 1.064-.15.508-.224 1.286-.224 2.334 0 1.153.084 2.005.254 2.559.169.553.4.954.693 1.201.15.124.355.186.615.186.573 0 1.114-.45 1.621-1.348V6.949Zm12.725 2.158h-5.01c.059 1.211.381 2.168.967 2.872.45.54.99.81 1.621.81.39 0 .745-.107 1.065-.322.319-.222.66-.615 1.025-1.182l.332.215c-.495 1.01-1.042 1.725-1.64 2.148-.6.417-1.293.625-2.08.625-1.355 0-2.38-.52-3.077-1.562-.56-.84-.84-1.882-.84-3.125 0-1.524.41-2.734 1.23-3.633.828-.905 1.794-1.357 2.901-1.357.925 0 1.725.38 2.402 1.142.684.755 1.052 1.879 1.104 3.37Zm-2.403-.654c0-1.048-.058-1.767-.175-2.158-.11-.39-.287-.687-.528-.889-.136-.117-.319-.176-.547-.176-.338 0-.615.166-.83.499-.384.579-.576 1.373-.576 2.382v.342h2.656Zm7.286-3.584v1.182c.469-.508.918-.876 1.347-1.104a2.85 2.85 0 0 1 1.387-.351c.593 0 1.084.166 1.475.498.39.325.65.732.78 1.22.105.372.157 1.084.157 2.14v3.554c0 .703.062 1.142.186 1.318.13.17.397.277.8.322V14H63.36v-.352c.345-.045.593-.188.743-.43.104-.162.156-.566.156-1.21V7.945c0-.748-.03-1.22-.088-1.416a.83.83 0 0 0-.303-.449.711.711 0 0 0-.459-.166c-.56 0-1.08.4-1.562 1.201v4.893c0 .683.062 1.116.185 1.299.13.182.368.296.713.341V14h-4.619v-.352c.384-.039.658-.162.82-.37.111-.144.166-.567.166-1.27V6.852c0-.69-.065-1.12-.195-1.29-.124-.169-.387-.28-.791-.332v-.36h3.72ZM72.87 1.53v3.34h2.168v.967H72.87v5.635c0 .527.023.869.069 1.025.052.15.14.274.263.371a.593.593 0 0 0 .342.137c.423 0 .823-.322 1.201-.967l.293.215c-.527 1.25-1.383 1.875-2.568 1.875-.58 0-1.071-.16-1.475-.479-.397-.325-.65-.686-.762-1.083-.065-.222-.097-.82-.097-1.797V5.836h-1.192v-.342a12.47 12.47 0 0 0 2.09-1.826c.58-.638 1.084-1.35 1.514-2.139h.322Zm10.772 7.578h-5.01c.058 1.211.38 2.168.967 2.872.449.54.99.81 1.62.81.391 0 .746-.107 1.065-.322.32-.222.661-.615 1.026-1.182l.332.215c-.495 1.01-1.042 1.725-1.641 2.148-.599.417-1.292.625-2.08.625-1.354 0-2.38-.52-3.076-1.562-.56-.84-.84-1.882-.84-3.125 0-1.524.41-2.734 1.23-3.633.827-.905 1.794-1.357 2.9-1.357.925 0 1.726.38 2.403 1.142.684.755 1.052 1.879 1.104 3.37Zm-2.403-.654c0-1.048-.058-1.767-.175-2.158-.111-.39-.287-.687-.528-.889-.137-.117-.319-.176-.547-.176-.338 0-.615.166-.83.499-.384.579-.576 1.373-.576 2.382v.342h2.656Zm9.326-3.838.147 3.115h-.332c-.397-.924-.81-1.556-1.24-1.894-.424-.339-.847-.508-1.27-.508a.949.949 0 0 0-.683.274.816.816 0 0 0-.284.615.8.8 0 0 0 .196.508c.208.267.79.726 1.748 1.377.957.644 1.585 1.194 1.884 1.65.306.45.46.954.46 1.514 0 .507-.127 1.005-.381 1.494a2.67 2.67 0 0 1-1.075 1.123 3.07 3.07 0 0 1-1.533.39c-.436 0-1.019-.136-1.748-.41-.195-.071-.329-.107-.4-.107-.215 0-.394.163-.537.488h-.323l-.156-3.281h.332c.293.86.694 1.504 1.201 1.934.515.43 1 .644 1.455.644.313 0 .567-.094.762-.283a.944.944 0 0 0 .303-.703c0-.313-.098-.583-.293-.81-.196-.229-.632-.574-1.309-1.036-.996-.69-1.64-1.217-1.933-1.582-.43-.534-.645-1.123-.645-1.768 0-.703.241-1.338.723-1.904.488-.573 1.191-.86 2.11-.86.494 0 .972.121 1.435.362.175.098.319.147.43.147a.521.521 0 0 0 .283-.069c.071-.052.185-.192.341-.42h.332ZM0 17.125h91.904v1.904H0v-1.904Z"/>
</svg>
